<svg width="296" height="144" viewBox="0 0 296 144" fill="none" xmlns="http://www.w3.org/2000/svg">
<path d="M147.276 1.70117C147.476 1.47437 147.829 1.47437 148.028 1.70117L167.536 23.9189H167.537C168.55 25.0721 170.195 25.4313 171.596 24.8047L208.979 8.08398C209.321 7.93122 209.703 8.19518 209.682 8.56934L208.452 29.8643C208.323 32.106 210.308 33.8875 212.522 33.5176L258.067 25.9072C258.549 25.8269 258.848 26.4142 258.5 26.7568L241.482 43.499C239.294 45.6524 240.741 49.379 243.81 49.4912L287.157 51.0762C287.336 51.0827 287.427 51.1402 287.481 51.1914C287.549 51.2546 287.609 51.358 287.632 51.4902C287.655 51.6226 287.633 51.7401 287.591 51.8223C287.557 51.8888 287.491 51.9734 287.325 52.04L257.943 63.8223C254.801 65.0825 255.101 69.6258 258.382 70.4619L293.198 79.335C293.376 79.3804 293.452 79.4574 293.493 79.5186C293.545 79.595 293.582 79.7101 293.574 79.8467C293.567 79.9835 293.517 80.0947 293.457 80.165C293.409 80.2212 293.325 80.2892 293.144 80.3145L253.549 85.8125C250.293 86.2647 249.4 90.5492 252.204 92.2646L275.664 106.618C275.808 106.706 275.861 106.798 275.885 106.87C275.914 106.957 275.919 107.073 275.88 107.195C275.841 107.318 275.771 107.409 275.697 107.464C275.636 107.509 275.54 107.554 275.371 107.544L229.833 104.702C227.125 104.533 225.263 107.377 226.501 109.792L236.285 128.882C236.485 129.272 236.122 129.711 235.701 129.59L192.829 117.204C191.092 116.702 189.258 117.606 188.599 119.289L179.743 141.89C179.626 142.189 179.26 142.301 178.995 142.119L149.632 121.979C148.439 121.16 146.866 121.16 145.673 121.979L116.31 142.119C116.044 142.301 115.678 142.189 115.561 141.89L106.706 119.289C106.046 117.606 104.213 116.702 102.476 117.204L59.6035 129.59C59.1827 129.711 58.82 129.272 59.0195 128.882L68.8037 109.792C70.0413 107.377 68.1797 104.533 65.4717 104.702L19.9326 107.544C19.7641 107.554 19.6688 107.509 19.6074 107.464C19.5338 107.409 19.4634 107.318 19.4248 107.195C19.3862 107.073 19.3908 106.957 19.4199 106.87C19.4441 106.798 19.4966 106.706 19.6406 106.618L43.1006 92.2646C45.9043 90.5492 45.0113 86.2648 41.7559 85.8125L2.16113 80.3145C1.97931 80.2892 1.89552 80.2212 1.84766 80.165C1.78786 80.0947 1.73811 79.9835 1.73047 79.8467C1.72292 79.71 1.75999 79.595 1.81152 79.5186C1.85278 79.4574 1.92822 79.3804 2.10645 79.335L36.9229 70.4619C40.2038 69.6258 40.5039 65.0825 37.3613 63.8223L7.97949 52.04C7.8133 51.9734 7.74774 51.8888 7.71387 51.8223C7.6721 51.7401 7.64981 51.6226 7.67285 51.4902C7.6959 51.3579 7.75617 51.2546 7.82324 51.1914C7.87762 51.1402 7.96838 51.0827 8.14746 51.0762L51.4951 49.4912C54.5635 49.379 56.0109 45.6524 53.8223 43.499L36.8047 26.7568C36.4564 26.4142 36.7554 25.8268 37.2373 25.9072L82.7812 33.5176C84.9961 33.8877 86.9818 32.1061 86.8525 29.8643L85.623 8.56934C85.6014 8.19514 85.984 7.93111 86.3262 8.08398L123.709 24.8047C125.11 25.4313 126.755 25.0721 127.768 23.9189L147.276 1.70117Z" stroke="#FF1919" stroke-width="3"/>
</svg>
